# https://github.com/mikedh/trimesh
v -6.00000000 0.00000000 -5.00000000
v 6.00000000 0.00000000 -5.00000000
v 6.00000000 0.00000000 5.00000000
v -6.00000000 0.00000000 5.00000000
v -6.00000000 6.00000000 -5.00000000
v 6.00000000 6.00000000 -5.00000000
v 6.00000000 6.00000000 5.00000000
v -6.00000000 6.00000000 5.00000000
v 0.00000000 9.00000000 -5.00000000
v 0.00000000 9.00000000 5.00000000
f 1 2 3
f 3 4 1
f 1 2 6
f 6 5 1
f 2 3 7
f 7 6 2
f 3 4 8
f 8 7 3
f 4 1 5
f 5 8 4
f 5 6 9
f 8 7 10
f 5 9 10
f 10 8 5
f 6 7 10
f 10 9 6

