# https://github.com/mikedh/trimesh
v -26.66666667 0.00000000 -12.50000000
v 13.33333333 0.00000000 -12.50000000
v 13.33333333 0.00000000 12.50000000
v 0.00000000 0.00000000 12.50000000
v 0.00000000 0.00000000 37.50000000
v -26.66666667 0.00000000 37.50000000
v -26.66666667 25.00000000 -12.50000000
v 13.33333333 25.00000000 -12.50000000
v 13.33333333 25.00000000 12.50000000
v 0.00000000 25.00000000 12.50000000
v 0.00000000 25.00000000 37.50000000
v -26.66666667 25.00000000 37.50000000
f 1 2 3
f 1 3 4
f 1 4 5
f 1 5 6
f 7 9 8
f 7 10 9
f 7 11 10
f 7 12 11
f 1 2 8
f 8 7 1
f 2 3 9
f 9 8 2
f 3 4 10
f 10 9 3
f 4 5 11
f 11 10 4
f 5 6 12
f 12 11 5
f 6 1 7
f 7 12 6

